<?xml version="1.0" encoding="UTF-8"?>
<svg width="20px" height="20px" viewBox="0 0 20 20" version="1.1" xmlns="http://www.w3.org/2000/svg" xmlns:xlink="http://www.w3.org/1999/xlink">
    <!-- Generator: Sketch 55.2 (78181) - https://sketchapp.com -->
    <title>Combined Shape</title>
    <desc>Created with Sketch.</desc>
    <g id="Desktop" stroke="none" stroke-width="1" fill="none" fill-rule="evenodd">
        <g id="insta" transform="translate(-1.000000, -1.000000)" fill="#000000" fill-rule="nonzero">
            <path d="M19.8818182,21.0004424 L2.09090909,21.0004424 C1.48694908,20.9953004 1,20.5042726 1,19.900292 L1,2.10029197 C1,1.49631133 1.48694908,1.00528355 2.09090909,1.0001415 L19.8818182,1.0001415 C20.1766937,0.995417329 20.4611768,1.10915431 20.671416,1.31597503 C20.8816553,1.52279576 21,1.80537613 21,2.10029197 L21,19.900292 C21,20.1952078 20.8816553,20.4777882 20.671416,20.6846089 C20.4611768,20.8914296 20.1766937,21.0051666 19.8818182,21.0004424 Z M17.2181818,6.17301925 C17.9964012,6.17301925 18.6272727,5.54214776 18.6272727,4.76392834 C18.6272727,3.98570892 17.9964012,3.35483743 17.2181818,3.35483743 C16.4399624,3.35483743 15.8090909,3.98570892 15.8090909,4.76392834 C15.8090909,5.54214776 16.4399624,6.17301925 17.2181818,6.17301925 Z M10.9818182,14.7639283 C13.0604171,14.7639283 14.7454545,13.0788909 14.7454545,11.000292 C14.7454545,8.92169301 13.0604171,7.23665561 10.9818182,7.23665561 C8.90321921,7.23665561 7.21818182,8.92169301 7.21818182,11.000292 C7.21818182,13.0788909 8.90321921,14.7639283 10.9818182,14.7639283 Z" id="Combined-Shape"></path>
        </g>
    </g>
</svg>